<?xml version="1.0" standalone="no"?>
<!DOCTYPE svg PUBLIC "-//W3C//DTD SVG 20010904//EN"
"http://www.w3.org/TR/2001/REC-SVG-20010904/DTD/svg10.dtd">
<svg version="1.0" xmlns="http://www.w3.org/2000/svg" width="300.000000pt" height="300.000000pt" viewBox="0 0 300.000000 300.000000" preserveAspectRatio="xMidYMid meet">
<g transform="translate(0.000000,300.000000) scale(0.100000,-0.100000)" fill="currentColor" stroke="none">
<path d="M1370 2964 c-14 -2 -71 -11 -128 -20 l-103 -17 -20 -39 c-40 -79
-188 -426 -237 -558 -59 -157 -106 -330 -123 -449 -14 -103 -7 -294 16 -376
53 -197 199 -357 382 -420 77 -27 265 -50 321 -40 45 8 40 -1 -17 -30 -125
-63 -321 -87 -451 -56 -192 46 -368 222 -435 434 -37 117 -48 206 -43 357 10
256 98 542 302 975 30 63 51 115 47 115 -14 0 -188 -104 -266 -159 -170 -120
-359 -342 -455 -532 -232 -460 -203 -1041 72 -1454 101 -151 168 -190 323
-189 115 1 199 29 471 155 366 169 457 210 814 371 407 182 508 236 622 327
70 56 234 239 223 249 -1 2 -43 -17 -92 -42 -336 -168 -718 -286 -930 -286
-251 0 -444 131 -524 356 -27 75 -37 258 -20 373 30 206 136 510 300 865 22
49 41 90 41 92"/>
<path d="M1644 2903 c-14 -32 -60 -141 -101 -243 -211 -516 -255 -759 -167
-932 106 -210 398 -255 709 -109 l80 37 24 75 c13 41 26 80 28 87 3 7 -24 -1
-63 -19 -96 -43 -166 -59 -254 -59 -211 0 -307 163 -256 432 8 40 33 131 56
201 41 127 166 450 196 508 8 17 14 33 11 35 -5 5 -201 44 -222 44 -9 0 -26
-25 -41 -57z"/>
<path d="M2966 1665 c-73 -197 -222 -381 -410 -507 -115 -77 -233 -135 -476
-238 -255 -107 -473 -202 -482 -209 -4 -3 122 -3 280 0 253 5 296 8 364 27
195 55 398 161 610 320 l87 64 22 92 c17 70 23 130 27 266 2 96 2 189 0 205
-3 29 -4 28 -22 -20z"/>
<path d="M2715 738 c-106 -71 -299 -167 -408 -202 -137 -44 -229 -57 -502 -66
-345 -12 -490 -42 -695 -144 -85 -42 -233 -136 -245 -156 -8 -12 73 -50 170
-79 383 -113 799 -80 1142 92 255 129 469 329 608 570 15 26 25 47 23 47 -1
-1 -43 -28 -93 -62z"/>
</g>
</svg>